<svg id="visual" viewBox="0 0 960 540" width="960" height="540" xmlns="http://www.w3.org/2000/svg" xmlns:xlink="http://www.w3.org/1999/xlink" version="1.1"><rect x="0" y="0" width="960" height="540" fill="#fff"></rect><path d="M0 352L22.8 359.5C45.7 367 91.3 382 137 379.5C182.7 377 228.3 357 274 354C319.7 351 365.3 365 411.2 371.2C457 377.3 503 375.7 548.8 366.7C594.7 357.7 640.3 341.3 686 341C731.7 340.7 777.3 356.3 823 357.7C868.7 359 914.3 346 937.2 339.5L960 333L960 541L937.2 541C914.3 541 868.7 541 823 541C777.3 541 731.7 541 686 541C640.3 541 594.7 541 548.8 541C503 541 457 541 411.2 541C365.3 541 319.7 541 274 541C228.3 541 182.7 541 137 541C91.3 541 45.7 541 22.8 541L0 541Z" fill="#a2b473"></path><path d="M0 372L22.8 374.8C45.7 377.7 91.3 383.3 137 391.3C182.7 399.3 228.3 409.7 274 409.2C319.7 408.7 365.3 397.3 411.2 386.5C457 375.7 503 365.3 548.8 370C594.7 374.7 640.3 394.3 686 402.7C731.7 411 777.3 408 823 406.8C868.7 405.7 914.3 406.3 937.2 406.7L960 407L960 541L937.2 541C914.3 541 868.7 541 823 541C777.3 541 731.7 541 686 541C640.3 541 594.7 541 548.8 541C503 541 457 541 411.2 541C365.3 541 319.7 541 274 541C228.3 541 182.7 541 137 541C91.3 541 45.7 541 22.8 541L0 541Z" fill="#8ea363"></path><path d="M0 439L22.8 435.3C45.7 431.7 91.3 424.3 137 419.7C182.7 415 228.3 413 274 417.7C319.7 422.3 365.3 433.7 411.2 433C457 432.3 503 419.7 548.8 413.5C594.7 407.3 640.3 407.7 686 412.8C731.7 418 777.3 428 823 432.8C868.7 437.7 914.3 437.3 937.2 437.2L960 437L960 541L937.2 541C914.3 541 868.7 541 823 541C777.3 541 731.7 541 686 541C640.3 541 594.7 541 548.8 541C503 541 457 541 411.2 541C365.3 541 319.7 541 274 541C228.3 541 182.7 541 137 541C91.3 541 45.7 541 22.8 541L0 541Z" fill="#7a9254"></path><path d="M0 438L22.8 437.7C45.7 437.3 91.3 436.7 137 436C182.7 435.3 228.3 434.7 274 440.8C319.7 447 365.3 460 411.2 468.3C457 476.7 503 480.3 548.8 481C594.7 481.7 640.3 479.3 686 476.2C731.7 473 777.3 469 823 466.5C868.7 464 914.3 463 937.2 462.5L960 462L960 541L937.2 541C914.3 541 868.7 541 823 541C777.3 541 731.7 541 686 541C640.3 541 594.7 541 548.8 541C503 541 457 541 411.2 541C365.3 541 319.7 541 274 541C228.3 541 182.7 541 137 541C91.3 541 45.7 541 22.8 541L0 541Z" fill="#678245"></path><path d="M0 490L22.8 488.7C45.7 487.3 91.3 484.7 137 484.5C182.7 484.3 228.3 486.7 274 489.2C319.7 491.7 365.3 494.3 411.2 494.5C457 494.7 503 492.3 548.8 491C594.7 489.7 640.3 489.3 686 490.3C731.7 491.3 777.3 493.7 823 491.3C868.7 489 914.3 482 937.2 478.5L960 475L960 541L937.2 541C914.3 541 868.7 541 823 541C777.3 541 731.7 541 686 541C640.3 541 594.7 541 548.8 541C503 541 457 541 411.2 541C365.3 541 319.7 541 274 541C228.3 541 182.7 541 137 541C91.3 541 45.7 541 22.8 541L0 541Z" fill="#547236"></path></svg>